# xmcd
#
# Track frame offsets:
#	150
#	22326
#	45010
#	68345
#	90888
#	114042
#	151820
#	175447
#	198132
#	221979
#	244795
#	280020
#	302942
#
# Disc length: 4313 seconds
#
# Revision: 1
# Processed by: cddbd v1.5.1PL2 Copyright (c) Steve Scherf et al.
# Submitted via: audiograbber 1.83.01
#
DISCID=9f10d70d
DTITLE=bendicion - jesus
DYEAR=1900
DGENRE=
TTITLE0=Pista  jesus
TTITLE1=esus
TTITLE2=esus
TTITLE3=esus
TTITLE4=esus
TTITLE5=esus
TTITLE6=esus
TTITLE7=esus
TTITLE8=esus
TTITLE9=esus
TTITLE10=esus
TTITLE11=esus
TTITLE12=esus
EXTD=
EXTT0=
EXTT1=
EXTT2=
EXTT3=
EXTT4=
EXTT5=
EXTT6=
EXTT7=
EXTT8=
EXTT9=
EXTT10=
EXTT11=
EXTT12=
PLAYORDER=
